<svg xmlns="http://www.w3.org/2000/svg" xmlns:xlink="http://www.w3.org/1999/xlink" version="1.1" id="Layer_1" x="0px" y="0px" width="8.99px" height="17.312px" viewBox="0 0 8.99 17.312" enable-background="new 0 0 8.99 17.312" xml:space="preserve">
<g>
	<rect x="1473.308" y="3.246" fill="none" width="145.622" height="22.295"/>
	<text transform="matrix(1 0 0 1 1507.0396 15.0889)" fill=" #464646" font-family="'SegoeUI'" font-size="16">Share this story:</text>
</g>
<g>
	<path fill=" #464646" d="M1698.399,4.833c-0.559,0.84-1.244,1.557-2.055,2.146v0.539c0,1.105-0.162,2.211-0.479,3.316   c-0.321,1.105-0.813,2.167-1.473,3.188c-0.659,1.019-1.451,1.918-2.371,2.696c-0.916,0.778-2.016,1.4-3.305,1.867   c-1.283,0.469-2.664,0.702-4.143,0.702c-2.492,0-4.609-0.562-6.354-1.683c0.328,0.048,0.654,0.07,0.979,0.07   c1.791,0,3.508-0.653,5.141-1.96c-0.889-0.017-1.686-0.293-2.393-0.831c-0.709-0.535-1.195-1.217-1.461-2.043   c0.266,0.047,0.521,0.07,0.77,0.07c0.376,0,0.74-0.045,1.098-0.14c-0.947-0.188-1.738-0.663-2.367-1.425   c-0.633-0.764-0.947-1.643-0.947-2.639V8.664c0.593,0.326,1.217,0.498,1.867,0.513c-1.23-0.824-1.844-1.968-1.844-3.433   c0-0.684,0.186-1.352,0.561-2.007c1.041,1.261,2.301,2.261,3.773,3c1.471,0.74,3.055,1.157,4.752,1.249   c-0.064-0.265-0.096-0.583-0.096-0.957c0-1.137,0.398-2.109,1.203-2.92c0.801-0.809,1.779-1.214,2.93-1.214   c1.182,0,2.195,0.436,3.039,1.308c0.916-0.186,1.789-0.521,2.615-1.004c-0.314,0.996-0.92,1.759-1.822,2.289   C1696.809,5.394,1697.606,5.175,1698.399,4.833z"/>
</g>
<g>
	<path fill=" #464646" d="M1727.464,14.25l-8.351-6.288v9.98h18.069V8.042l-8.553,6.161C1728.149,14.6,1727.858,14.6,1727.464,14.25z   "/>
	<polygon fill=" #464646" points="1737.075,4.618 1719.405,4.59 1728.001,11.303  "/>
</g>
<path id="f" fill=" #464646" d="M5.835,17.312V9.415h2.651l0.396-3.077H5.835V4.373c0-0.891,0.248-1.498,1.525-1.498L8.99,2.874  V0.121C8.708,0.083,7.741,0,6.616,0C4.267,0,2.657,1.434,2.657,4.068v2.27H0v3.077h2.657v7.897H5.835z"/>
</svg>


