<?xml version="1.0" encoding="utf-8"?>
<!-- Generator: Adobe Illustrator 16.0.0, SVG Export Plug-In . SVG Version: 6.00 Build 0)  -->
<!DOCTYPE svg PUBLIC "-//W3C//DTD SVG 1.1//EN" "http://www.w3.org/Graphics/SVG/1.1/DTD/svg11.dtd">
<svg version="1.1" id="Layer_1" xmlns="http://www.w3.org/2000/svg" xmlns:xlink="http://www.w3.org/1999/xlink" x="0px" y="0px"
	 width="18.235px" height="14.816px" viewBox="0 0 18.235 14.816" enable-background="new 0 0 18.235 14.816" xml:space="preserve">
<g>
	<rect x="-205.885" y="-0.438" fill="none" width="145.622" height="22.295"/>
	<text transform="matrix(1 0 0 1 -172.1528 11.4048)" fill=" #464646" font-family="'SegoeUI'" font-size="16">Share this story:</text>
</g>
<g>
	<path fill=" #464646" d="M18.235,1.752C17.73,2.511,17.111,3.16,16.379,3.69v0.487c0,1-0.147,2-0.434,2.998
		c-0.29,1-0.732,1.96-1.332,2.881c-0.595,0.922-1.31,1.734-2.142,2.438c-0.828,0.704-1.82,1.266-2.987,1.688
		c-1.157,0.423-2.406,0.634-3.745,0.634c-2.251,0-4.165-0.508-5.74-1.521c0.296,0.043,0.59,0.064,0.884,0.064
		c1.621,0,3.17-0.591,4.645-1.771c-0.803-0.016-1.521-0.265-2.161-0.753c-0.641-0.482-1.082-1.098-1.319-1.845
		c0.237,0.042,0.47,0.062,0.693,0.062c0.343,0,0.672-0.039,0.993-0.124C2.879,8.757,2.164,8.33,1.597,7.641
		C1.024,6.949,0.739,6.155,0.739,5.256V5.214c0.535,0.293,1.1,0.449,1.687,0.462c-1.11-0.745-1.664-1.779-1.664-3.104
		c0-0.615,0.166-1.22,0.506-1.811c0.941,1.14,2.078,2.044,3.408,2.712C6.008,4.14,7.438,4.52,8.974,4.602
		C8.915,4.361,8.887,4.073,8.887,3.736c0-1.027,0.357-1.906,1.086-2.639C10.696,0.368,11.582,0,12.62,0
		c1.066,0,1.985,0.394,2.746,1.182c0.828-0.166,1.618-0.472,2.364-0.909c-0.285,0.903-0.831,1.59-1.647,2.071
		C16.8,2.259,17.519,2.062,18.235,1.752z"/>
</g>
<g>
	<path fill=" #464646" d="M48.271,10.565l-8.351-6.288v9.98H57.99V4.358l-8.553,6.161C48.957,10.916,48.666,10.916,48.271,10.565z"/>
	<polygon fill=" #464646" points="57.883,0.934 40.213,0.906 48.809,7.619 	"/>
</g>
<path id="f" fill=" #464646" d="M-1673.357,13.627V5.73h2.651l0.396-3.077h-3.047V0.688c0-0.891,0.248-1.498,1.525-1.498l1.629-0.001
	v-2.753c-0.282-0.037-1.25-0.121-2.375-0.121c-2.349,0-3.958,1.434-3.958,4.068v2.27h-2.657V5.73h2.657v7.897H-1673.357z"/>
</svg>
